<svg width="109" height="33" viewBox="0 0 109 33" fill="none" xmlns="http://www.w3.org/2000/svg">
<path d="M7.55905 16.2194H4.82395V26.0906H2.48668V16.2194H0.149414V14.3048H2.48668V11.8432C2.48668 11.147 2.56128 10.5088 2.71046 9.92865C2.87623 9.3319 3.13316 8.81803 3.48127 8.38704C3.84595 7.95606 4.3018 7.61624 4.84882 7.3676C5.41241 7.11895 6.09204 6.99463 6.88771 6.99463C7.45131 6.99463 7.94031 7.05265 8.35472 7.16868L8.08121 9.18271C7.89887 9.13298 7.71653 9.09154 7.53419 9.05839C7.35185 9.02523 7.14465 9.00866 6.91258 9.00866C6.46501 9.00866 6.10033 9.09154 5.81853 9.2573C5.55331 9.40649 5.34611 9.6137 5.19692 9.87892C5.04773 10.1441 4.94828 10.4508 4.89855 10.7989C4.84882 11.1304 4.82395 11.4785 4.82395 11.8432V14.3048H7.55905V16.2194Z" fill="white"/>
<path d="M17.0466 18.4572C17.0466 17.5786 16.7814 16.9322 16.251 16.5178C15.7205 16.0868 15.016 15.8713 14.1375 15.8713C13.4744 15.8713 12.8445 16.0039 12.2478 16.2691C11.6676 16.5178 11.1786 16.841 10.7808 17.2388L9.53754 15.747C10.1177 15.1999 10.8222 14.7689 11.651 14.454C12.4964 14.139 13.3998 13.9816 14.3613 13.9816C15.2067 13.9816 15.936 14.1059 16.5493 14.3545C17.1792 14.5866 17.6931 14.9098 18.0909 15.3243C18.4888 15.7387 18.7872 16.2277 18.9861 16.7913C19.185 17.3549 19.2844 17.9599 19.2844 18.6064V23.7533C19.2844 24.1512 19.2927 24.5739 19.3093 25.0214C19.3425 25.4524 19.3922 25.8088 19.4585 26.0906H17.345C17.2124 25.527 17.1461 24.9634 17.1461 24.3998H17.0715C16.6405 25.0297 16.0935 25.5187 15.4304 25.8668C14.784 26.2149 14.0132 26.389 13.118 26.389C12.6539 26.389 12.1649 26.3227 11.651 26.1901C11.1537 26.074 10.6979 25.8751 10.2835 25.5933C9.86906 25.3115 9.52096 24.9386 9.23916 24.4744C8.97394 24.0103 8.84133 23.4384 8.84133 22.7588C8.84133 21.8636 9.08169 21.1591 9.5624 20.6453C10.0431 20.1148 10.673 19.717 11.4521 19.4518C12.2312 19.17 13.1097 18.9876 14.0878 18.9048C15.0658 18.8219 16.0521 18.7804 17.0466 18.7804V18.4572ZM16.4748 20.4712C15.8946 20.4712 15.2895 20.4961 14.6596 20.5458C14.0463 20.5955 13.4827 20.695 12.9688 20.8442C12.4716 20.9934 12.0571 21.2172 11.7256 21.5155C11.3941 21.8139 11.2283 22.2117 11.2283 22.709C11.2283 23.0571 11.2946 23.3472 11.4272 23.5793C11.5764 23.8114 11.7671 24.002 11.9991 24.1512C12.2312 24.3004 12.4881 24.4081 12.7699 24.4744C13.0517 24.5241 13.3418 24.549 13.6402 24.549C14.7342 24.549 15.5713 24.2258 16.1515 23.5793C16.7483 22.9162 17.0466 22.0874 17.0466 21.0928V20.4712H16.4748Z" fill="white"/>
<path d="M25.4755 16.2442C25.7739 15.6143 26.2463 15.0839 26.8928 14.6529C27.5559 14.2054 28.335 13.9816 29.2301 13.9816C30.0257 13.9816 30.7385 14.1639 31.3684 14.5286C32.0149 14.8933 32.5205 15.4983 32.8852 16.3437C33.283 15.5812 33.8383 15.001 34.5511 14.6032C35.2639 14.1888 36.043 13.9816 36.8884 13.9816C37.6509 13.9816 38.3056 14.1142 38.8527 14.3794C39.3997 14.628 39.8555 14.9679 40.2202 15.3989C40.5849 15.8298 40.8501 16.3354 41.0159 16.9156C41.1982 17.4958 41.2894 18.1174 41.2894 18.7804V26.0906H38.9521V19.5512C38.9521 19.0705 38.9107 18.6147 38.8278 18.1837C38.7449 17.7527 38.604 17.3714 38.4051 17.0399C38.2062 16.7084 37.941 16.4432 37.6094 16.2442C37.2779 16.0453 36.8552 15.9459 36.3413 15.9459C35.8109 15.9459 35.355 16.0619 34.9738 16.294C34.5925 16.5095 34.2776 16.7996 34.0289 17.1642C33.7969 17.5123 33.6228 17.9102 33.5068 18.3577C33.4073 18.8053 33.3576 19.2611 33.3576 19.7253V26.0906H31.0203V19.0788C31.0203 18.6147 30.9789 18.192 30.896 17.8107C30.8131 17.4295 30.6722 17.1062 30.4733 16.841C30.2744 16.5592 30.0175 16.3437 29.7025 16.1945C29.3876 16.0288 28.998 15.9459 28.5339 15.9459C27.6719 15.9459 26.9508 16.3023 26.3707 17.015C25.8071 17.7113 25.5253 18.6478 25.5253 19.8247V26.0906H23.188V16.841C23.188 16.526 23.1797 16.1199 23.1631 15.6226C23.1465 15.1253 23.1217 14.6861 23.0885 14.3048H25.3015C25.3346 14.6032 25.3595 14.943 25.3761 15.3243C25.3926 15.6889 25.4009 15.9956 25.4009 16.2442H25.4755Z" fill="white"/>
<path d="M47.5731 32.0581H45.2359V14.3048H47.5234V16.1448H47.598C47.9793 15.5149 48.5346 15.001 49.2639 14.6032C50.0099 14.1888 50.8718 13.9816 51.8498 13.9816C52.7284 13.9816 53.5241 14.139 54.2368 14.454C54.9662 14.7689 55.5878 15.2082 56.1017 15.7718C56.6321 16.3354 57.0382 16.9985 57.32 17.761C57.6018 18.5069 57.7427 19.3109 57.7427 20.1728C57.7427 21.0348 57.6018 21.8471 57.32 22.6096C57.0382 23.3721 56.6404 24.0351 56.1265 24.5987C55.6127 25.1623 54.9911 25.6099 54.2617 25.9414C53.5323 26.2564 52.7118 26.4139 51.8001 26.4139C50.9547 26.4139 50.159 26.2315 49.4131 25.8668C48.6672 25.5022 48.0787 24.9883 47.6477 24.3252H47.5731V32.0581ZM55.3309 20.1728C55.3309 19.6258 55.248 19.0954 55.0822 18.5815C54.9165 18.0676 54.6678 17.6118 54.3363 17.214C54.0048 16.8161 53.5904 16.5012 53.0931 16.2691C52.6124 16.037 52.0488 15.921 51.4023 15.921C50.8055 15.921 50.2585 16.037 49.7612 16.2691C49.2805 16.5012 48.8661 16.8161 48.518 17.214C48.1699 17.6118 47.8964 18.0676 47.6975 18.5815C47.5151 19.0954 47.4239 19.6341 47.4239 20.1977C47.4239 20.7613 47.5151 21.3 47.6975 21.8139C47.8964 22.3278 48.1699 22.7836 48.518 23.1815C48.8661 23.5627 49.2805 23.8694 49.7612 24.1014C50.2585 24.3335 50.8055 24.4496 51.4023 24.4496C52.0488 24.4496 52.6124 24.3335 53.0931 24.1014C53.5904 23.8528 54.0048 23.5296 54.3363 23.1317C54.6678 22.7339 54.9165 22.278 55.0822 21.7642C55.248 21.2503 55.3309 20.7199 55.3309 20.1728Z" fill="white"/>
<path d="M68.3298 18.4572C68.3298 17.5786 68.0646 16.9322 67.5341 16.5178C67.0037 16.0868 66.2992 15.8713 65.4206 15.8713C64.7576 15.8713 64.1277 16.0039 63.5309 16.2691C62.9508 16.5178 62.4618 16.841 62.0639 17.2388L60.8207 15.747C61.4009 15.1999 62.1054 14.7689 62.9342 14.454C63.7796 14.139 64.683 13.9816 65.6444 13.9816C66.4898 13.9816 67.2192 14.1059 67.8325 14.3545C68.4624 14.5866 68.9763 14.9098 69.3741 15.3243C69.7719 15.7387 70.0703 16.2277 70.2692 16.7913C70.4681 17.3549 70.5676 17.9599 70.5676 18.6064V23.7533C70.5676 24.1512 70.5759 24.5739 70.5925 25.0214C70.6256 25.4524 70.6754 25.8088 70.7417 26.0906H68.6282C68.4956 25.527 68.4293 24.9634 68.4293 24.3998H68.3547C67.9237 25.0297 67.3767 25.5187 66.7136 25.8668C66.0671 26.2149 65.2963 26.389 64.4012 26.389C63.9371 26.389 63.4481 26.3227 62.9342 26.1901C62.4369 26.074 61.981 25.8751 61.5666 25.5933C61.1522 25.3115 60.8041 24.9386 60.5223 24.4744C60.2571 24.0103 60.1245 23.4384 60.1245 22.7588C60.1245 21.8636 60.3648 21.1591 60.8456 20.6453C61.3263 20.1148 61.9562 19.717 62.7353 19.4518C63.5144 19.17 64.3929 18.9876 65.3709 18.9048C66.3489 18.8219 67.3352 18.7804 68.3298 18.7804V18.4572ZM67.7579 20.4712C67.1777 20.4712 66.5727 20.4961 65.9428 20.5458C65.3295 20.5955 64.7659 20.695 64.252 20.8442C63.7547 20.9934 63.3403 21.2172 63.0088 21.5155C62.6773 21.8139 62.5115 22.2117 62.5115 22.709C62.5115 23.0571 62.5778 23.3472 62.7104 23.5793C62.8596 23.8114 63.0502 24.002 63.2823 24.1512C63.5144 24.3004 63.7713 24.4081 64.0531 24.4744C64.3349 24.5241 64.625 24.549 64.9234 24.549C66.0174 24.549 66.8545 24.2258 67.4347 23.5793C68.0314 22.9162 68.3298 22.0874 68.3298 21.0928V20.4712H67.7579Z" fill="white"/>
<path d="M78.9468 23.5544H78.9965L82.2538 14.3048H84.7402L79.0214 28.8754C78.8225 29.3727 78.607 29.812 78.3749 30.1933C78.1428 30.5911 77.8693 30.9226 77.5544 31.1879C77.2394 31.4697 76.8664 31.6851 76.4355 31.8343C76.021 31.9835 75.5238 32.0581 74.9436 32.0581C74.6949 32.0581 74.438 32.0415 74.1728 32.0084C73.9241 31.9918 73.6672 31.9504 73.402 31.8841L73.6258 29.8203C74.0236 29.9529 74.4131 30.0192 74.7944 30.0192C75.4077 30.0192 75.8636 29.8452 76.1619 29.4971C76.4603 29.1655 76.7338 28.6848 76.9825 28.0549L77.7284 26.0906L72.6809 14.3048H75.2917L78.9468 23.5544Z" fill="white"/>
<path d="M98.6484 28.3705C98.6316 28.3876 98.6126 28.4024 98.5919 28.4144C98.5043 28.4641 98.3955 28.4567 98.3155 28.3956C97.5617 27.9182 93.6328 25.1984 91.0606 22.0169C90.9161 21.8348 90.847 21.75 90.8502 21.6432C90.8062 20.1514 93.4443 18.4586 95.4606 17.3688H95.4795C95.5058 17.352 95.539 17.3504 95.5668 17.3646C95.5946 17.3788 95.6127 17.4067 95.6145 17.4379C95.6145 19.5358 96.2018 25.2895 98.6641 27.959C98.7711 28.0778 98.7642 28.2602 98.6484 28.3705Z" fill="#FFAD00"/>
<path d="M97.012 15.6507L102.47 13.1695C103.867 12.6227 104.955 11.4942 105.451 10.0791L106.132 8.16648C106.156 8.08966 106.133 8.00632 106.074 7.95162C106.016 7.89691 105.931 7.88036 105.856 7.90895L95.4291 12.3247L95.4667 12.1583C95.5201 11.8487 95.709 11.5791 95.9818 11.4233C97.7469 10.3367 104.072 7.1018 104.072 7.1018C106.079 6.16449 107.586 4.40949 108.208 2.28403L108.686 0.647751C108.714 0.551782 108.684 0.448345 108.61 0.381462C108.536 0.314578 108.43 0.29602 108.337 0.333686C108.337 0.333686 98.8178 4.03338 95.7588 5.51891C92.6998 7.00444 89.5655 8.92024 88.4788 14.5483C88.0391 16.8284 88.8462 18.7599 90.3632 20.9458C90.3538 18.7945 95.7902 16.2411 97.012 15.6507Z" fill="#FFAD00"/>
<path d="M83.5858 6.0184C82.7221 5.35572 81.9872 5.29919 81.8584 5.35572C81.805 5.15472 82.8509 4.65849 82.9796 4.52973C83.4036 4.12458 83.6423 3.58753 84.1385 3.24206C85.1498 2.52285 86.3998 2.74583 87.4488 3.31429C87.9827 3.60951 89.4525 4.57055 89.4745 4.62081C90.3105 5.24563 91.0903 5.94237 91.8049 6.70306C91.8546 6.74704 91.8843 6.8093 91.8873 6.87561C91.8902 6.94191 91.8662 7.00658 91.8206 7.05481C91.7232 7.13019 91.5065 7.30607 91.1296 7.63898C88.6579 9.89711 87.9324 13.132 87.7503 14.2972C87.7503 14.3223 87.7157 14.5233 87.7157 14.5233C87.7157 14.5233 86.5129 8.07867 83.5858 6.0184Z" fill="#FFAD00"/>
</svg>
