<?xml version="1.0" standalone="no"?>
<!DOCTYPE svg PUBLIC "-//W3C//DTD SVG 20010904//EN"
 "http://www.w3.org/TR/2001/REC-SVG-20010904/DTD/svg10.dtd">
<svg version="1.0" xmlns="http://www.w3.org/2000/svg"
 width="512.000000pt" height="512.000000pt" viewBox="0 0 512.000000 512.000000"
 preserveAspectRatio="xMidYMid meet">
<metadata>
Created by potrace 1.11, written by Peter Selinger 2001-2013
</metadata>
<g transform="translate(0.000000,512.000000) scale(0.100000,-0.100000)"
fill="#000000" stroke="none">
<path d="M2443 4668 c-18 -13 -42 -40 -55 -61 -13 -22 -28 -46 -33 -55 -9 -15
-60 -103 -121 -210 -12 -20 -44 -77 -73 -125 -28 -49 -51 -91 -51 -95 0 -3 -6
-13 -14 -21 -8 -9 -27 -40 -42 -69 -16 -28 -36 -64 -44 -80 -15 -26 -122 -211
-140 -242 -5 -8 -48 -82 -96 -165 -48 -82 -94 -163 -104 -180 -41 -70 -244
-423 -260 -450 -62 -108 -260 -452 -295 -510 -22 -38 -44 -77 -48 -85 -4 -8
-15 -28 -26 -45 -36 -59 -131 -225 -131 -229 0 -3 -13 -25 -30 -49 -16 -25
-30 -48 -30 -52 0 -4 -8 -19 -18 -33 -11 -15 -33 -52 -49 -82 -17 -30 -84
-147 -149 -260 -140 -241 -144 -249 -144 -301 0 -31 7 -47 34 -77 l34 -37
1933 -3 c1930 -2 1932 -2 1975 18 47 23 69 63 66 116 -3 41 -35 102 -223 422
-27 45 -49 87 -49 91 0 5 -3 11 -7 13 -5 2 -15 17 -24 33 -9 17 -76 134 -149
260 -73 127 -141 244 -151 262 -10 17 -29 50 -43 72 -15 22 -26 43 -26 46 0 4
-72 132 -99 175 -9 14 -145 248 -181 311 -22 39 -139 242 -150 259 -26 44
-180 311 -202 350 -14 25 -49 86 -77 135 -29 50 -63 108 -76 130 -23 40 -218
379 -283 490 -19 33 -48 85 -65 115 -17 30 -41 71 -54 90 -12 19 -23 39 -23
43 0 14 -50 70 -79 89 -36 25 -90 23 -128 -4z"/>
</g>
</svg>
